<svg width="64" height="64" viewBox="0 0 64 64" fill="none" xmlns="http://www.w3.org/2000/svg">
<g clip-path="url(#clip0_402_653)">
<path d="M37.4122 62.9368C35.7772 64.9958 32.4621 63.8676 32.4227 61.2386L31.8467 22.7861H57.7021C62.3852 22.7861 64.9971 28.1952 62.085 31.8629L37.4122 62.9368Z" fill="url(#paint0_linear_402_653)"/>
<path d="M37.4122 62.9368C35.7772 64.9958 32.4621 63.8676 32.4227 61.2386L31.8467 22.7861H57.7021C62.3852 22.7861 64.9971 28.1952 62.085 31.8629L37.4122 62.9368Z" fill="#FF6600"/>
<path d="M26.8969 1.06341C28.5319 -0.995773 31.8471 0.132512 31.8865 2.76156L32.1389 41.214H6.60708C1.92383 41.214 -0.688108 35.805 2.22408 32.1373L26.8969 1.06341Z" fill="#FF6600"/>
</g>
<defs>
<linearGradient id="paint0_linear_402_653" x1="31.8467" y1="31.312" x2="54.8261" y2="40.9495" gradientUnits="userSpaceOnUse">
<stop stop-color="#249361"/>
<stop offset="1" stop-color="#3ECF8E"/>
</linearGradient>
<clipPath id="clip0_402_653">
<rect width="64" height="64" fill="white"/>
</clipPath>
</defs>
</svg>
