<svg width="21" height="21" viewBox="0 0 21 21" fill="none" xmlns="http://www.w3.org/2000/svg">
<path d="M14.0001 11.5004L18.3526 14.4021C18.4154 14.4438 18.4883 14.4678 18.5635 14.4714C18.6388 14.475 18.7137 14.4581 18.7801 14.4225C18.8466 14.3869 18.9021 14.334 18.9409 14.2693C18.9796 14.2047 19.0001 14.1308 19.0001 14.0554V7.22538C19.0001 7.15207 18.9808 7.08005 18.9441 7.01659C18.9074 6.95313 18.8546 6.90049 18.791 6.86397C18.7274 6.82745 18.6554 6.80835 18.582 6.8086C18.5087 6.80885 18.4368 6.82843 18.3735 6.86538L14.0001 9.41705" stroke="#FF6600" stroke-width="1.66667" stroke-linecap="round" stroke-linejoin="round"/>
<path d="M12.3334 5.66699H4.00004C3.07957 5.66699 2.33337 6.41318 2.33337 7.33366V14.0003C2.33337 14.9208 3.07957 15.667 4.00004 15.667H12.3334C13.2538 15.667 14 14.9208 14 14.0003V7.33366C14 6.41318 13.2538 5.66699 12.3334 5.66699Z" stroke="#FF6600" stroke-width="1.66667" stroke-linecap="round" stroke-linejoin="round"/>
</svg>
