<svg width="21" height="21" viewBox="0 0 21 21" fill="none" xmlns="http://www.w3.org/2000/svg">
<path d="M10.6665 7.33008C14.8086 7.33008 18.1665 6.21079 18.1665 4.83008C18.1665 3.44937 14.8086 2.33008 10.6665 2.33008C6.52437 2.33008 3.1665 3.44937 3.1665 4.83008C3.1665 6.21079 6.52437 7.33008 10.6665 7.33008Z" stroke="#FF6600" stroke-width="1.66667" stroke-linecap="round" stroke-linejoin="round"/>
<path d="M3.1665 4.83008V16.4967C3.1665 17.1598 3.95668 17.7957 5.3632 18.2645C6.76973 18.7334 8.67738 18.9967 10.6665 18.9967C12.6556 18.9967 14.5633 18.7334 15.9698 18.2645C17.3763 17.7957 18.1665 17.1598 18.1665 16.4967V4.83008" stroke="#FF6600" stroke-width="1.66667" stroke-linecap="round" stroke-linejoin="round"/>
<path d="M3.1665 10.6633C3.1665 11.3264 3.95668 11.9623 5.3632 12.4311C6.76973 12.8999 8.67738 13.1633 10.6665 13.1633C12.6556 13.1633 14.5633 12.8999 15.9698 12.4311C17.3763 11.9623 18.1665 11.3264 18.1665 10.6633" stroke="#FF6600" stroke-width="1.66667" stroke-linecap="round" stroke-linejoin="round"/>
</svg>
