<svg width="34" height="34" viewBox="0 0 34 34" fill="none" xmlns="http://www.w3.org/2000/svg">
<path d="M15.5834 5.66666V1.41666H18.4167V5.66666H15.5834ZM15.5834 32.5833V28.3333H18.4167V32.5833H15.5834ZM28.3334 18.4167V15.5833H32.5834V18.4167H28.3334ZM1.41675 18.4167V15.5833H5.66675V18.4167H1.41675ZM26.4917 9.49166L24.5084 7.50833L26.9876 4.95833L29.0417 7.0125L26.4917 9.49166ZM7.01258 29.0417L4.95841 26.9875L7.50841 24.5083L9.49175 26.4917L7.01258 29.0417ZM26.9876 29.0417L24.5084 26.4917L26.4917 24.5083L29.0417 26.9875L26.9876 29.0417ZM7.50841 9.49166L4.95841 7.0125L7.01258 4.95833L9.49175 7.50833L7.50841 9.49166ZM17.0001 25.5C14.639 25.5 12.632 24.6736 10.9792 23.0208C9.32647 21.3681 8.50008 19.3611 8.50008 17C8.50008 14.6389 9.32647 12.6319 10.9792 10.9792C12.632 9.32639 14.639 8.5 17.0001 8.5C19.3612 8.5 21.3681 9.32639 23.0209 10.9792C24.6737 12.6319 25.5001 14.6389 25.5001 17C25.5001 19.3611 24.6737 21.3681 23.0209 23.0208C21.3681 24.6736 19.3612 25.5 17.0001 25.5ZM17.0001 22.6667C18.582 22.6667 19.922 22.1177 21.0199 21.0198C22.1178 19.9219 22.6667 18.5819 22.6667 17C22.6667 15.4181 22.1178 14.0781 21.0199 12.9802C19.922 11.8823 18.582 11.3333 17.0001 11.3333C15.4181 11.3333 14.0782 11.8823 12.9803 12.9802C11.8824 14.0781 11.3334 15.4181 11.3334 17C11.3334 18.5819 11.8824 19.9219 12.9803 21.0198C14.0782 22.1177 15.4181 22.6667 17.0001 22.6667Z" fill="#E3E3E3"/>
</svg>
