<svg width="32" height="32" viewBox="0 0 32 32" fill="none" xmlns="http://www.w3.org/2000/svg">
<path d="M5.33341 26.6667C4.60008 26.6667 3.9723 26.4056 3.45008 25.8833C2.92786 25.3611 2.66675 24.7333 2.66675 24V8.00001C2.66675 7.26668 2.92786 6.6389 3.45008 6.11668C3.9723 5.59445 4.60008 5.33334 5.33341 5.33334H26.6667C27.4001 5.33334 28.0279 5.59445 28.5501 6.11668C29.0723 6.6389 29.3334 7.26668 29.3334 8.00001V24C29.3334 24.7333 29.0723 25.3611 28.5501 25.8833C28.0279 26.4056 27.4001 26.6667 26.6667 26.6667H5.33341ZM16.0001 17.3333L5.33341 10.6667V24H26.6667V10.6667L16.0001 17.3333ZM16.0001 14.6667L26.6667 8.00001H5.33341L16.0001 14.6667ZM5.33341 10.6667V8.00001V24V10.6667Z" fill="#FF6600" fill-opacity="0.78"/>
</svg>
