<svg width="21" height="21" viewBox="0 0 21 21" fill="none" xmlns="http://www.w3.org/2000/svg">
<path d="M10.6667 18.6603C8.45657 18.6603 6.33695 17.7823 4.77415 16.2195C3.21135 14.6567 2.33337 12.5371 2.33337 10.327C2.33337 8.11685 3.21135 5.99723 4.77415 4.43443C6.33695 2.87163 8.45657 1.99365 10.6667 1.99365C12.8768 1.99365 14.9965 2.78383 16.5593 4.19035C18.1221 5.59687 19 7.50453 19 9.49365C19 10.5987 18.5611 11.6585 17.7797 12.4399C16.9983 13.2213 15.9384 13.6603 14.8334 13.6603H12.9584C12.6875 13.6603 12.4221 13.7357 12.1917 13.8781C11.9613 14.0205 11.7751 14.2242 11.654 14.4665C11.5329 14.7087 11.4816 14.9799 11.5059 15.2496C11.5303 15.5194 11.6292 15.777 11.7917 15.9937L12.0417 16.327C12.2042 16.5436 12.3032 16.8013 12.3275 17.071C12.3518 17.3408 12.3005 17.6119 12.1794 17.8542C12.0583 18.0964 11.8721 18.3001 11.6417 18.4425C11.4114 18.5849 11.1459 18.6603 10.875 18.6603H10.6667Z" stroke="#FF6600" stroke-width="1.66667" stroke-linecap="round" stroke-linejoin="round"/>
<path d="M11.9168 6.16048C12.1469 6.16048 12.3335 5.97393 12.3335 5.74382C12.3335 5.5137 12.1469 5.32715 11.9168 5.32715C11.6867 5.32715 11.5001 5.5137 11.5001 5.74382C11.5001 5.97393 11.6867 6.16048 11.9168 6.16048Z" fill="#FF6600" stroke="#FF6600" stroke-width="1.66667" stroke-linecap="round" stroke-linejoin="round"/>
<path d="M15.25 9.49398C15.4802 9.49398 15.6667 9.30743 15.6667 9.07731C15.6667 8.84719 15.4802 8.66064 15.25 8.66064C15.0199 8.66064 14.8334 8.84719 14.8334 9.07731C14.8334 9.30743 15.0199 9.49398 15.25 9.49398Z" fill="#FF6600" stroke="#FF6600" stroke-width="1.66667" stroke-linecap="round" stroke-linejoin="round"/>
<path d="M6.08341 11.1605C6.31353 11.1605 6.50008 10.9739 6.50008 10.7438C6.50008 10.5137 6.31353 10.3271 6.08341 10.3271C5.8533 10.3271 5.66675 10.5137 5.66675 10.7438C5.66675 10.9739 5.8533 11.1605 6.08341 11.1605Z" fill="#FF6600" stroke="#FF6600" stroke-width="1.66667" stroke-linecap="round" stroke-linejoin="round"/>
<path d="M7.75004 6.99398C7.98016 6.99398 8.16671 6.80743 8.16671 6.57731C8.16671 6.34719 7.98016 6.16064 7.75004 6.16064C7.51992 6.16064 7.33337 6.34719 7.33337 6.57731C7.33337 6.80743 7.51992 6.99398 7.75004 6.99398Z" fill="#FF6600" stroke="#FF6600" stroke-width="1.66667" stroke-linecap="round" stroke-linejoin="round"/>
</svg>
