<svg width="17" height="17" viewBox="0 0 17 17" fill="none" xmlns="http://www.w3.org/2000/svg">
<path d="M11.0783 5.30332C11.0783 5.93984 10.8254 6.55029 10.3753 7.00038C9.92524 7.45046 9.31479 7.70332 8.67827 7.70332C8.04175 7.70332 7.4313 7.45046 6.98122 7.00038C6.53113 6.55029 6.27827 5.93984 6.27827 5.30332C6.27827 4.6668 6.53113 4.05635 6.98122 3.60626C7.4313 3.15618 8.04175 2.90332 8.67827 2.90332C9.31479 2.90332 9.92524 3.15618 10.3753 3.60626C10.8254 4.05635 11.0783 4.6668 11.0783 5.30332ZM15.0783 6.90332C15.0783 7.32767 14.9097 7.73463 14.6096 8.03469C14.3096 8.33475 13.9026 8.50332 13.4783 8.50332C13.0539 8.50332 12.647 8.33475 12.3469 8.03469C12.0468 7.73463 11.8783 7.32767 11.8783 6.90332C11.8783 6.47897 12.0468 6.07201 12.3469 5.77195C12.647 5.47189 13.0539 5.30332 13.4783 5.30332C13.9026 5.30332 14.3096 5.47189 14.6096 5.77195C14.9097 6.07201 15.0783 6.47897 15.0783 6.90332ZM11.8783 12.5033C11.8783 11.6546 11.5411 10.8407 10.941 10.2406C10.3409 9.64046 9.52696 9.30332 8.67827 9.30332C7.82958 9.30332 7.01565 9.64046 6.41553 10.2406C5.81541 10.8407 5.47827 11.6546 5.47827 12.5033V14.9033H11.8783V12.5033Z" fill="#FF6600"/>
</svg>
