<svg width="21" height="21" viewBox="0 0 21 21" fill="none" xmlns="http://www.w3.org/2000/svg">
<path d="M8.72568 4.11362C8.7716 3.63057 8.99596 3.18199 9.35493 2.85552C9.71391 2.52905 10.1817 2.34814 10.6669 2.34814C11.1522 2.34814 11.62 2.52905 11.9789 2.85552C12.3379 3.18199 12.5623 3.63057 12.6082 4.11362C12.6358 4.42567 12.7381 4.72647 12.9066 4.99057C13.0751 5.25467 13.3047 5.4743 13.5761 5.63085C13.8474 5.78741 14.1525 5.87629 14.4654 5.88997C14.7784 5.90365 15.09 5.84174 15.374 5.70946C15.8149 5.50927 16.3146 5.4803 16.7757 5.62819C17.2368 5.77608 17.6264 6.09025 17.8686 6.50954C18.1109 6.92884 18.1884 7.42327 18.0862 7.8966C17.984 8.36993 17.7093 8.7883 17.3157 9.07029C17.0593 9.25016 16.8501 9.48913 16.7056 9.76698C16.5611 10.0448 16.4857 10.3534 16.4857 10.6665C16.4857 10.9797 16.5611 11.2883 16.7056 11.5661C16.8501 11.8439 17.0593 12.0829 17.3157 12.2628C17.7093 12.5448 17.984 12.9631 18.0862 13.4365C18.1884 13.9098 18.1109 14.4042 17.8686 14.8235C17.6264 15.2428 17.2368 15.557 16.7757 15.7049C16.3146 15.8528 15.8149 15.8238 15.374 15.6236C15.09 15.4913 14.7784 15.4294 14.4654 15.4431C14.1525 15.4568 13.8474 15.5457 13.5761 15.7022C13.3047 15.8588 13.0751 16.0784 12.9066 16.3425C12.7381 16.6066 12.6358 16.9074 12.6082 17.2195C12.5623 17.7025 12.3379 18.1511 11.9789 18.4776C11.62 18.804 11.1522 18.9849 10.6669 18.9849C10.1817 18.9849 9.71391 18.804 9.35493 18.4776C8.99596 18.1511 8.7716 17.7025 8.72568 17.2195C8.69813 16.9073 8.59576 16.6064 8.42723 16.3422C8.25871 16.078 8.02899 15.8583 7.75754 15.7017C7.48609 15.5451 7.1809 15.4563 6.86783 15.4427C6.55475 15.4291 6.24301 15.4912 5.95901 15.6236C5.51809 15.8238 5.01845 15.8528 4.55735 15.7049C4.09624 15.557 3.70666 15.2428 3.46442 14.8235C3.22218 14.4042 3.14461 13.9098 3.24681 13.4365C3.34902 12.9631 3.62368 12.5448 4.01735 12.2628C4.2737 12.0829 4.48296 11.8439 4.62742 11.5661C4.77189 11.2883 4.84731 10.9797 4.84731 10.6665C4.84731 10.3534 4.77189 10.0448 4.62742 9.76698C4.48296 9.48913 4.2737 9.25016 4.01735 9.07029C3.62423 8.78816 3.35006 8.36995 3.2481 7.89694C3.14614 7.42393 3.22369 6.92991 3.46567 6.51088C3.70765 6.09186 4.09677 5.77777 4.55742 5.62966C5.01807 5.48154 5.51733 5.50998 5.95818 5.70946C6.24214 5.84174 6.5538 5.90365 6.86676 5.88997C7.17973 5.87629 7.48479 5.78741 7.75613 5.63085C8.02747 5.4743 8.25709 5.25467 8.42557 4.99057C8.59405 4.72647 8.69642 4.42567 8.72401 4.11362" stroke="#FF6600" stroke-width="1.66667" stroke-linecap="round" stroke-linejoin="round"/>
<path d="M10.6665 13.167C12.0472 13.167 13.1665 12.0477 13.1665 10.667C13.1665 9.28628 12.0472 8.16699 10.6665 8.16699C9.28579 8.16699 8.1665 9.28628 8.1665 10.667C8.1665 12.0477 9.28579 13.167 10.6665 13.167Z" stroke="#FF6600" stroke-width="1.66667" stroke-linecap="round" stroke-linejoin="round"/>
</svg>
