<svg width="25" height="25" viewBox="0 0 25 25" fill="none" xmlns="http://www.w3.org/2000/svg">
<path d="M15.6665 22.3335V18.3335C15.8057 17.0808 15.4465 15.8236 14.6665 14.8335C17.6665 14.8335 20.6665 12.8335 20.6665 9.3335C20.7465 8.0835 20.3965 6.8535 19.6665 5.8335C19.9465 4.6835 19.9465 3.4835 19.6665 2.3335C19.6665 2.3335 18.6665 2.3335 16.6665 3.8335C14.0265 3.3335 11.3065 3.3335 8.66654 3.8335C6.66654 2.3335 5.66654 2.3335 5.66654 2.3335C5.36654 3.4835 5.36654 4.6835 5.66654 5.8335C4.93841 6.84938 4.58501 8.08628 4.66654 9.3335C4.66654 12.8335 7.66654 14.8335 10.6665 14.8335C10.2765 15.3235 9.98654 15.8835 9.81654 16.4835C9.64654 17.0835 9.59654 17.7135 9.66654 18.3335V22.3335" stroke="#FF6600" stroke-width="2" stroke-linecap="round" stroke-linejoin="round"/>
<path d="M9.6665 18.3335C5.1565 20.3335 4.6665 16.3335 2.6665 16.3335" stroke="#FF6600" stroke-width="2" stroke-linecap="round" stroke-linejoin="round"/>
</svg>
