<svg width="20" height="18" viewBox="0 0 20 18" fill="none" xmlns="http://www.w3.org/2000/svg">
<path d="M10 18L6.825 15.15C5.625 14.0667 4.59583 13.1 3.7375 12.25C2.87917 11.4 2.17083 10.6 1.6125 9.85C1.05417 9.1 0.645833 8.375 0.3875 7.675C0.129167 6.975 0 6.24167 0 5.475C0 3.90833 0.525 2.60417 1.575 1.5625C2.625 0.520833 3.93333 0 5.5 0C6.36667 0 7.19167 0.183333 7.975 0.55C8.75833 0.916667 9.43333 1.43333 10 2.1C10.5667 1.43333 11.2417 0.916667 12.025 0.55C12.8083 0.183333 13.6333 0 14.5 0C15.8333 0 17.0458 0.445833 18.1375 1.3375C19.2292 2.22917 19.8417 3.45 19.975 5H17.925C17.8083 3.9 17.3667 3.125 16.6 2.675C15.8333 2.225 15.1333 2 14.5 2C13.65 2 12.9167 2.22917 12.3 2.6875C11.6833 3.14583 11.1083 3.75 10.575 4.5H9.425C8.90833 3.75 8.32083 3.14583 7.6625 2.6875C7.00417 2.22917 6.28333 2 5.5 2C4.55 2 3.72917 2.32917 3.0375 2.9875C2.34583 3.64583 2 4.475 2 5.475C2 6.025 2.11667 6.58333 2.35 7.15C2.58333 7.71667 3 8.37083 3.6 9.1125C4.2 9.85417 5.01667 10.7208 6.05 11.7125C7.08333 12.7042 8.4 13.9 10 15.3L11.525 13.975C12.325 13.275 13.1958 12.4833 14.1375 11.6C15.0792 10.7167 15.875 9.85 16.525 9H14.325V7H20V12.65H18V10.375C17.3167 11.2417 16.4917 12.125 15.525 13.025C14.5583 13.925 13.6667 14.7417 12.85 15.475L10 18Z" fill="#FF6600"/>
</svg>
