<svg width="25" height="25" viewBox="0 0 25 25" fill="none" xmlns="http://www.w3.org/2000/svg">
<path d="M16.3333 8.3335C17.9246 8.3335 19.4507 8.96564 20.5759 10.0909C21.7011 11.2161 22.3333 12.7422 22.3333 14.3335V21.3335H18.3333V14.3335C18.3333 13.8031 18.1225 13.2944 17.7475 12.9193C17.3724 12.5442 16.8637 12.3335 16.3333 12.3335C15.8028 12.3335 15.2941 12.5442 14.919 12.9193C14.544 13.2944 14.3333 13.8031 14.3333 14.3335V21.3335H10.3333V14.3335C10.3333 12.7422 10.9654 11.2161 12.0906 10.0909C13.2158 8.96564 14.742 8.3335 16.3333 8.3335Z" stroke="#FF6600" stroke-width="2" stroke-linecap="round" stroke-linejoin="round"/>
<path d="M6.33325 9.3335H2.33325V21.3335H6.33325V9.3335Z" stroke="#FF6600" stroke-width="2" stroke-linecap="round" stroke-linejoin="round"/>
<path d="M4.33325 6.3335C5.43782 6.3335 6.33325 5.43807 6.33325 4.3335C6.33325 3.22893 5.43782 2.3335 4.33325 2.3335C3.22868 2.3335 2.33325 3.22893 2.33325 4.3335C2.33325 5.43807 3.22868 6.3335 4.33325 6.3335Z" stroke="#FF6600" stroke-width="2" stroke-linecap="round" stroke-linejoin="round"/>
</svg>
