<svg width="21" height="20" viewBox="0 0 21 20" fill="none" xmlns="http://www.w3.org/2000/svg">
<path d="M17.3331 8.33366C17.3331 12.4945 12.7173 16.8278 11.1673 18.1662C11.0229 18.2747 10.8471 18.3335 10.6664 18.3335C10.4858 18.3335 10.31 18.2747 10.1656 18.1662C8.61559 16.8278 3.99976 12.4945 3.99976 8.33366C3.99976 6.56555 4.70213 4.86986 5.95238 3.61961C7.20262 2.36937 8.89831 1.66699 10.6664 1.66699C12.4345 1.66699 14.1302 2.36937 15.3805 3.61961C16.6307 4.86986 17.3331 6.56555 17.3331 8.33366Z" stroke="#FF6600" stroke-width="1.66667" stroke-linecap="round" stroke-linejoin="round"/>
<path d="M10.6665 10.834C12.0472 10.834 13.1665 9.7147 13.1665 8.33398C13.1665 6.95327 12.0472 5.83398 10.6665 5.83398C9.28579 5.83398 8.1665 6.95327 8.1665 8.33398C8.1665 9.7147 9.28579 10.834 10.6665 10.834Z" stroke="#FF6600" stroke-width="1.66667" stroke-linecap="round" stroke-linejoin="round"/>
</svg>
