<svg width="21" height="21" viewBox="0 0 21 21" fill="none" xmlns="http://www.w3.org/2000/svg">
<path d="M8.72568 4.36313C8.7716 3.88008 8.99596 3.4315 9.35493 3.10503C9.71391 2.77856 10.1817 2.59766 10.6669 2.59766C11.1522 2.59766 11.62 2.77856 11.9789 3.10503C12.3379 3.4315 12.5623 3.88008 12.6082 4.36313C12.6358 4.67518 12.7381 4.97598 12.9066 5.24008C13.0751 5.50418 13.3047 5.72381 13.5761 5.88036C13.8474 6.03692 14.1525 6.1258 14.4654 6.13948C14.7784 6.15317 15.09 6.09125 15.374 5.95897C15.8149 5.75878 16.3146 5.72982 16.7757 5.87771C17.2368 6.02559 17.6264 6.33976 17.8686 6.75905C18.1109 7.17835 18.1884 7.67278 18.0862 8.14611C17.984 8.61944 17.7093 9.03781 17.3157 9.3198C17.0593 9.49967 16.8501 9.73864 16.7056 10.0165C16.5611 10.2943 16.4857 10.6029 16.4857 10.9161C16.4857 11.2292 16.5611 11.5378 16.7056 11.8156C16.8501 12.0935 17.0593 12.3324 17.3157 12.5123C17.7093 12.7943 17.984 13.2127 18.0862 13.686C18.1884 14.1593 18.1109 14.6538 17.8686 15.073C17.6264 15.4923 17.2368 15.8065 16.7757 15.9544C16.3146 16.1023 15.8149 16.0733 15.374 15.8731C15.09 15.7409 14.7784 15.6789 14.4654 15.6926C14.1525 15.7063 13.8474 15.7952 13.5761 15.9517C13.3047 16.1083 13.0751 16.3279 12.9066 16.592C12.7381 16.8561 12.6358 17.1569 12.6082 17.469C12.5623 17.952 12.3379 18.4006 11.9789 18.7271C11.62 19.0535 11.1522 19.2344 10.6669 19.2344C10.1817 19.2344 9.71391 19.0535 9.35493 18.7271C8.99596 18.4006 8.7716 17.952 8.72568 17.469C8.69813 17.1568 8.59576 16.8559 8.42723 16.5917C8.25871 16.3275 8.02899 16.1078 7.75754 15.9512C7.48609 15.7947 7.1809 15.7058 6.86783 15.6922C6.55475 15.6786 6.24301 15.7407 5.95901 15.8731C5.51809 16.0733 5.01845 16.1023 4.55735 15.9544C4.09624 15.8065 3.70666 15.4923 3.46442 15.073C3.22218 14.6538 3.14461 14.1593 3.24681 13.686C3.34902 13.2127 3.62368 12.7943 4.01735 12.5123C4.2737 12.3324 4.48296 12.0935 4.62742 11.8156C4.77189 11.5378 4.84731 11.2292 4.84731 10.9161C4.84731 10.6029 4.77189 10.2943 4.62742 10.0165C4.48296 9.73864 4.2737 9.49967 4.01735 9.3198C3.62423 9.03767 3.35006 8.61946 3.2481 8.14645C3.14614 7.67344 3.22369 7.17942 3.46567 6.76039C3.70765 6.34137 4.09677 6.02728 4.55742 5.87917C5.01807 5.73105 5.51733 5.7595 5.95818 5.95897C6.24214 6.09125 6.5538 6.15317 6.86676 6.13948C7.17973 6.1258 7.48479 6.03692 7.75613 5.88036C8.02747 5.72381 8.25709 5.50418 8.42557 5.24008C8.59405 4.97598 8.69642 4.67518 8.72401 4.36313" stroke="#FF6600" stroke-width="1.66667" stroke-linecap="round" stroke-linejoin="round"/>
<path d="M10.6665 13.4165C12.0472 13.4165 13.1665 12.2972 13.1665 10.9165C13.1665 9.53579 12.0472 8.4165 10.6665 8.4165C9.28579 8.4165 8.1665 9.53579 8.1665 10.9165C8.1665 12.2972 9.28579 13.4165 10.6665 13.4165Z" stroke="#FF6600" stroke-width="1.66667" stroke-linecap="round" stroke-linejoin="round"/>
</svg>
