<svg width="21" height="21" viewBox="0 0 21 21" fill="none" xmlns="http://www.w3.org/2000/svg">
<path d="M4.00012 12.5832C3.84242 12.5838 3.68781 12.5395 3.55424 12.4557C3.42068 12.3719 3.31364 12.2519 3.24557 12.1096C3.1775 11.9674 3.15119 11.8087 3.1697 11.6521C3.1882 11.4955 3.25077 11.3474 3.35012 11.2249L11.6001 2.72489C11.662 2.65346 11.7463 2.60519 11.8393 2.588C11.9322 2.57082 12.0282 2.58574 12.1116 2.63031C12.1949 2.67489 12.2606 2.74647 12.2979 2.83331C12.3352 2.92016 12.3418 3.0171 12.3168 3.10823L10.7168 8.12489C10.6696 8.25116 10.6538 8.38699 10.6706 8.52073C10.6875 8.65447 10.7365 8.78213 10.8135 8.89275C10.8905 9.00337 10.9933 9.09365 11.1128 9.15586C11.2324 9.21806 11.3653 9.25033 11.5001 9.24989H17.3334C17.4911 9.24935 17.6458 9.29357 17.7793 9.37741C17.9129 9.46125 18.0199 9.58126 18.088 9.72351C18.1561 9.86576 18.1824 10.0244 18.1639 10.181C18.1454 10.3376 18.0828 10.4858 17.9834 10.6082L9.73345 19.1082C9.67156 19.1797 9.58723 19.2279 9.4943 19.2451C9.40136 19.2623 9.30535 19.2474 9.22201 19.2028C9.13867 19.1582 9.07296 19.0866 9.03567 18.9998C8.99838 18.913 8.99172 18.816 9.01678 18.7249L10.6168 13.7082C10.664 13.582 10.6798 13.4461 10.663 13.3124C10.6461 13.1786 10.5971 13.051 10.52 12.9404C10.443 12.8297 10.3403 12.7395 10.2207 12.6773C10.1011 12.6151 9.96824 12.5828 9.83345 12.5832H4.00012Z" stroke="#FF6600" stroke-width="1.66667" stroke-linecap="round" stroke-linejoin="round"/>
</svg>
