<svg width="12" height="17" viewBox="0 0 12 17" fill="none" xmlns="http://www.w3.org/2000/svg">
<path fill-rule="evenodd" clip-rule="evenodd" d="M3.84018 6.39535V5.86835C3.84018 5.44905 4.00675 5.04691 4.30324 4.75042C4.59974 4.45392 5.00187 4.28735 5.42118 4.28735H6.47518C6.89448 4.28735 7.29662 4.45392 7.59311 4.75042C7.88961 5.04691 8.05618 5.44905 8.05618 5.86835V6.39535H9.11018C9.38972 6.39535 9.6578 6.5064 9.85547 6.70406C10.0531 6.90173 10.1642 7.16982 10.1642 7.44935V9.33074C8.81486 9.83073 7.38715 10.0859 5.94818 10.0844C4.5092 10.086 3.08149 9.83075 1.73218 9.33074V7.44935C1.73218 7.16982 1.84322 6.90173 2.04089 6.70406C2.23855 6.5064 2.50664 6.39535 2.78618 6.39535H3.84018ZM4.89418 5.86835C4.89418 5.72858 4.9497 5.59454 5.04853 5.49571C5.14736 5.39688 5.28141 5.34135 5.42118 5.34135H6.47518C6.61495 5.34135 6.74899 5.39688 6.84782 5.49571C6.94665 5.59454 7.00218 5.72858 7.00218 5.86835V6.39535H4.89418V5.86835ZM5.42118 8.50335C5.42118 8.36358 5.4767 8.22954 5.57553 8.13071C5.67436 8.03188 5.80841 7.97635 5.94818 7.97635H5.95345C6.09322 7.97635 6.22726 8.03188 6.32609 8.13071C6.42492 8.22954 6.48045 8.36358 6.48045 8.50335C6.48045 8.64312 6.42492 8.77717 6.32609 8.876C6.22726 8.97483 6.09322 9.03035 5.95345 9.03035H5.94818C5.80841 9.03035 5.67436 8.97483 5.57553 8.876C5.4767 8.77717 5.42118 8.64312 5.42118 8.50335Z" fill="#FF6600"/>
</svg>
