<svg width="24" height="24" viewBox="0 0 24 24" fill="none" xmlns="http://www.w3.org/2000/svg">
<path d="M12.12 24C10.44 24 8.865 23.68 7.395 23.04C5.925 22.4 4.645 21.535 3.555 20.445C2.465 19.355 1.6 18.075 0.96 16.605C0.32 15.135 0 13.56 0 11.88C0 8.96 0.93 6.385 2.79 4.155C4.65 1.925 7.02 0.54 9.9 0C9.54 1.98 9.65 3.915 10.23 5.805C10.81 7.695 11.81 9.35 13.23 10.77C14.65 12.19 16.305 13.19 18.195 13.77C20.085 14.35 22.02 14.46 24 14.1C23.48 16.98 22.1 19.35 19.86 21.21C17.62 23.07 15.04 24 12.12 24ZM12.12 21.6C13.88 21.6 15.51 21.16 17.01 20.28C18.51 19.4 19.69 18.19 20.55 16.65C18.83 16.49 17.2 16.055 15.66 15.345C14.12 14.635 12.74 13.67 11.52 12.45C10.3 11.23 9.33 9.85 8.61 8.31C7.89 6.77 7.46 5.14 7.32 3.42C5.78 4.28 4.575 5.465 3.705 6.975C2.835 8.485 2.4 10.12 2.4 11.88C2.4 14.58 3.345 16.875 5.235 18.765C7.125 20.655 9.42 21.6 12.12 21.6Z" fill="black"/>
</svg>
