<svg width="21" height="21" viewBox="0 0 21 21" fill="none" xmlns="http://www.w3.org/2000/svg">
<path d="M12.1933 14.14C12.3654 14.219 12.5593 14.2371 12.743 14.1912C12.9267 14.1453 13.0894 14.0382 13.2041 13.8875L13.4999 13.5C13.6552 13.293 13.8565 13.125 14.0879 13.0093C14.3193 12.8936 14.5745 12.8333 14.8333 12.8333H17.3333C17.7753 12.8333 18.1992 13.0089 18.5118 13.3215C18.8243 13.634 18.9999 14.058 18.9999 14.5V17C18.9999 17.442 18.8243 17.8659 18.5118 18.1785C18.1992 18.4911 17.7753 18.6667 17.3333 18.6667C13.355 18.6667 9.5397 17.0863 6.72665 14.2733C3.9136 11.4602 2.33325 7.64491 2.33325 3.66667C2.33325 3.22464 2.50885 2.80072 2.82141 2.48816C3.13397 2.17559 3.55789 2 3.99992 2H6.49992C6.94195 2 7.36587 2.17559 7.67843 2.48816C7.99099 2.80072 8.16659 3.22464 8.16659 3.66667V6.16667C8.16659 6.42541 8.10634 6.6806 7.99063 6.91202C7.87492 7.14345 7.70691 7.34476 7.49992 7.5L7.10992 7.7925C6.95693 7.90931 6.8491 8.07549 6.80474 8.26279C6.76039 8.4501 6.78224 8.64698 6.86659 8.82C8.00549 11.1332 9.87861 13.004 12.1933 14.14Z" stroke="#FF6600" stroke-width="1.66667" stroke-linecap="round" stroke-linejoin="round"/>
</svg>
