<svg width="15" height="17" viewBox="0 0 15 17" fill="none" xmlns="http://www.w3.org/2000/svg">
<path fill-rule="evenodd" clip-rule="evenodd" d="M7.61811 14.0632C9.09271 14.0632 10.5069 13.4775 11.5496 12.4348C12.5923 11.392 13.1781 9.97784 13.1781 8.50324C13.1781 7.02863 12.5923 5.61443 11.5496 4.57172C10.5069 3.52902 9.09271 2.94324 7.61811 2.94324C6.1435 2.94324 4.72929 3.52902 3.68659 4.57172C2.64389 5.61443 2.05811 7.02863 2.05811 8.50324C2.05811 9.97784 2.64389 11.392 3.68659 12.4348C4.72929 13.4775 6.1435 14.0632 7.61811 14.0632ZM8.31311 5.72324C8.31311 5.53891 8.23988 5.36214 8.10955 5.2318C7.97921 5.10146 7.80243 5.02824 7.61811 5.02824C7.43378 5.02824 7.257 5.10146 7.12667 5.2318C6.99633 5.36214 6.92311 5.53891 6.92311 5.72324V8.50324C6.92315 8.68755 6.99639 8.8643 7.12674 8.9946L9.0922 10.9608C9.15677 11.0253 9.23343 11.0766 9.3178 11.1115C9.40217 11.1464 9.49259 11.1644 9.58391 11.1644C9.67523 11.1644 9.76566 11.1464 9.85003 11.1115C9.93439 11.0766 10.0111 11.0253 10.0756 10.9608C10.1402 10.8962 10.1914 10.8195 10.2264 10.7352C10.2613 10.6508 10.2793 10.5604 10.2793 10.469C10.2793 10.3777 10.2613 10.2873 10.2264 10.2029C10.1914 10.1186 10.1402 10.0419 10.0756 9.97733L8.31311 8.21551V5.72324Z" fill="#FF6600"/>
</svg>
