<svg width="256" height="256" viewBox="0 0 256 256" fill="none" xmlns="http://www.w3.org/2000/svg">
<g clip-path="url(#clip0_402_647)">
<path d="M9.45937 170.336C4.78309 170.336 0.992188 166.545 0.992188 161.869V9.45937C0.992188 4.78309 4.78309 0.992188 9.45937 0.992188H161.869C166.545 0.992188 170.336 4.78309 170.336 9.45937V85.664H246.541C251.217 85.664 255.008 89.4552 255.008 94.1312V246.541C255.008 251.217 251.217 255.008 246.541 255.008H94.1312C89.4552 255.008 85.664 251.217 85.664 246.541V170.336H9.45937Z" fill="#FF6600"/>
<path d="M161.869 0H9.45943C4.23514 0 0 4.23514 0 9.45943V161.869L0.00376012 162.138C0.146329 167.238 4.32508 171.328 9.45943 171.328L84.6715 171.327L84.6718 246.541C84.6718 251.765 88.907 256 94.1313 256H246.541C251.765 256 256 251.765 256 246.541V94.1313L255.996 93.8619C255.854 88.7622 251.675 84.6718 246.541 84.6718L171.327 84.6715L171.328 9.45943C171.328 4.23501 167.093 0 161.869 0ZM161.869 1.9845C165.997 1.9845 169.344 5.331 169.344 9.45943V85.6641C169.344 86.2121 169.788 86.6563 170.336 86.6563H246.541C250.669 86.6563 254.016 90.003 254.016 94.1313V246.541C254.016 250.669 250.669 254.016 246.541 254.016H94.1313C90.003 254.016 86.6563 250.669 86.6563 246.541V170.336C86.6563 169.788 86.2121 169.344 85.6641 169.344H9.45943C5.331 169.344 1.9845 165.997 1.9845 161.869V9.45943C1.9845 5.33115 5.33115 1.9845 9.45943 1.9845H161.869Z" fill="#FF6600"/>
<path d="M57.4403 128C53.5434 128 50.3843 124.841 50.3843 120.944V43.3282C50.3843 39.4313 53.5434 36.2722 57.4403 36.2722H83.9221C89.0518 36.2722 93.8428 36.7881 98.2951 37.8197C102.844 38.7577 106.764 40.3991 110.055 42.7438C113.443 44.9948 116.104 48.043 118.041 51.8885C119.976 55.6401 120.944 60.283 120.944 65.8163C120.944 71.1627 119.928 75.8055 117.895 79.7441C115.96 83.6835 113.298 86.9194 109.91 89.4518C106.522 91.9842 102.602 93.8604 98.1498 95.0796C93.6974 96.2989 88.9551 96.9085 83.9221 96.9085H78.7825C74.8855 96.9085 71.7265 100.068 71.7265 103.965V120.944C71.7265 124.841 68.5676 128 64.6705 128H57.4403ZM71.7265 73.3916C71.7265 77.2887 74.8855 80.4476 78.7825 80.4476H82.6153C94.2302 80.4476 100.037 75.5705 100.037 65.8163C100.037 61.0331 98.5372 57.6568 95.5369 55.687C92.6334 53.7174 88.3257 52.7326 82.6153 52.7326H78.7825C74.8855 52.7326 71.7265 55.8917 71.7265 59.7884V73.3916Z" fill="white"/>
<path d="M142.112 219.728C138.215 219.728 135.056 216.569 135.056 212.672V135.056C135.056 131.159 138.215 128 142.112 128H166.721C171.637 128 176.168 128.375 180.313 129.125C184.554 129.782 188.217 131.002 191.302 132.783C194.386 134.566 196.796 136.91 198.531 139.817C200.363 142.725 201.278 146.383 201.278 150.792C201.278 152.855 200.941 154.918 200.266 156.982C199.688 159.045 198.724 160.968 197.375 162.749C196.025 164.532 194.338 166.126 192.314 167.533C190.354 168.895 188.033 169.906 185.351 170.564C185.195 170.603 185.085 170.742 185.085 170.902C185.085 171.069 185.205 171.212 185.37 171.243C191.976 172.477 196.989 174.804 200.411 178.225C203.881 181.695 205.616 186.526 205.616 192.716C205.616 197.406 204.7 201.439 202.869 204.815C201.037 208.191 198.483 211.005 195.206 213.256C191.928 215.413 188.073 217.055 183.638 218.18C179.301 219.212 174.577 219.728 169.469 219.728H142.112ZM156.311 157.804C156.311 161.701 159.47 164.86 163.367 164.86H165.709C170.915 164.86 174.674 163.875 176.987 161.905C179.301 159.936 180.457 157.169 180.457 153.605C180.457 150.228 179.253 147.836 176.842 146.43C174.529 144.929 170.866 144.179 165.854 144.179H163.367C159.47 144.179 156.311 147.338 156.311 151.235V157.804ZM156.311 196.493C156.311 200.389 159.47 203.549 163.367 203.549H167.733C179.108 203.549 184.795 199.422 184.795 191.169C184.795 187.136 183.397 184.228 180.602 182.446C177.903 180.664 173.614 179.773 167.733 179.773H163.367C159.47 179.773 156.311 182.932 156.311 186.829V196.493Z" fill="white"/>
</g>
<defs>
<clipPath id="clip0_402_647">
<rect width="256" height="256" fill="white"/>
</clipPath>
</defs>
</svg>
