<svg width="128" height="128" viewBox="0 0 128 128" fill="none" xmlns="http://www.w3.org/2000/svg">
<path d="M19.037 113.876L9.03198 1.66089H118.968L108.952 113.859L63.933 126.339L19.037 113.876Z" fill="#FF6600"/>
<path d="M64 116.8L100.378 106.714L108.937 10.8359H64V116.8Z" fill="#FF6600"/>
<path d="M64 52.4551H45.788L44.53 38.3611H64V24.5991H29.489L29.819 28.2911L33.201 66.2181H64V52.4551ZM64 88.1981L63.939 88.2151L48.612 84.0751L47.633 73.1001H33.816L35.744 94.7091L63.937 102.535L64 102.518V88.1981Z" fill="white"/>
<path d="M63.9519 52.4551V66.2181H80.8989L79.3019 84.0671L63.9519 88.2101V102.529L92.1669 94.7091L92.3739 92.3841L95.6079 56.1511L95.9429 52.4551H92.2349H63.9519ZM63.9519 24.5991V38.3611H97.1959L97.4719 35.2691L98.0999 28.2911L98.4289 24.5991H63.9519Z" fill="white"/>
</svg>
