<svg width="128" height="128" viewBox="0 0 128 128" fill="none" xmlns="http://www.w3.org/2000/svg">
<path fill-rule="evenodd" clip-rule="evenodd" d="M65.261 1.39495C38.48 0.916945 16.1029 22.6479 16.0959 48.9999C16.0879 76.1099 37.4339 97.7389 64.1729 97.6989C90.6629 97.6599 112.105 76.1119 112.105 49.5319C112.104 23.3839 90.76 1.84995 65.261 1.39495ZM64.1129 95.2819C38.7869 95.2879 18.4189 74.7529 18.4199 49.2149C18.4209 24.3349 39.105 3.73494 64.094 3.72594C89.526 3.71794 109.789 24.3799 109.781 50.3129C109.773 74.7959 88.9739 95.2769 64.1129 95.2819ZM88.5079 35.9349C87.5139 34.2969 86.2919 32.7079 85.7299 30.9219C85.0899 28.8899 84.5589 26.5769 84.8979 24.5399C85.4739 21.0859 88.1229 19.3709 91.7099 19.0429C72.0859 0.829945 41.2479 7.34895 29.8849 27.1379C34.2589 26.9349 38.4349 26.6699 42.6139 26.6139C43.4049 26.6029 44.714 27.2709 44.9 27.8909C45.316 29.2759 44.152 29.7589 42.9139 29.8539C41.6129 29.9559 40.3099 30.0529 38.7989 30.1679L53.734 74.6619C54.093 74.0749 54.241 73.9099 54.306 73.7169C57.068 65.4619 59.8459 57.2119 62.5379 48.9329C62.7839 48.1779 62.6619 47.1779 62.3919 46.4019C60.9679 42.2909 59.262 38.2689 58.013 34.1079C57.158 31.2589 56.025 29.4159 52.658 29.7459C52.084 29.8019 51.385 28.5679 50.742 27.9299C51.519 27.4669 52.29 26.6139 53.074 26.6019C59.9309 26.4969 66.7891 26.4989 73.646 26.6079C74.432 26.6209 75.203 27.4969 75.981 27.9719C75.3 28.5939 74.7139 29.5259 73.9179 29.7659C72.6419 30.1509 71.2269 30.0779 69.6999 30.2139L84.6529 74.6979C86.9189 67.1739 89.0269 60.2639 91.0749 53.3379C92.9049 47.1559 91.8149 41.3809 88.5079 35.9349ZM52.719 88.1489C52.627 88.4159 52.6219 88.7119 52.5509 89.1559C61.0089 91.4999 69.301 91.3309 77.791 88.4709L64.8229 52.9509C60.6719 65.0149 56.692 76.5809 52.719 88.1489ZM46.1839 86.5429L26.6459 32.9469C17.8319 50.1639 24.5369 76.4329 46.1839 86.5429ZM100.636 31.1399C100.366 34.1339 100.554 37.4669 99.6949 40.5019C97.6719 47.6539 95.1989 54.6829 92.8179 61.7309C90.2299 69.3909 87.5379 77.0169 84.8909 84.6579C97.3279 77.2859 104.162 66.4049 105.25 52.1029C105.87 43.9629 103.062 32.6909 100.636 31.1399Z" fill="#F46201"/>
</svg>
