<svg width="302" height="107" viewBox="0 0 302 107" fill="none" xmlns="http://www.w3.org/2000/svg">
<path d="M14.6562 49.625L27.4062 61.1875L21.1875 68.125L1.90625 50L20.75 30.4062L27.4688 36.75L14.6562 49.625Z" fill="#FF6600"/>
<path d="M123 74H113.781L132.344 29.1875H141.562L123 74ZM146.5 36.75L153.219 30.4062L172.062 50L152.781 68.125L146.562 61.1875L159.312 49.625L146.5 36.75Z" fill="#FF6600"/>
<path d="M49 90V11L95.5 90V11" stroke="#FF6600"/>
<path d="M72 0.5C81.7394 0.5 90.6024 5.98193 97.0498 14.9365C103.497 23.8906 107.5 36.286 107.5 50C107.5 63.714 103.497 76.1094 97.0498 85.0635C90.6024 94.0181 81.7394 99.5 72 99.5C62.2606 99.5 53.3976 94.0181 46.9502 85.0635C40.5033 76.1094 36.5 63.714 36.5 50C36.5 36.286 40.5033 23.8906 46.9502 14.9365C53.3976 5.98193 62.2606 0.5 72 0.5Z" stroke="#FF6600"/>
<path d="M51 90L60 46M95 90L82 46M60 46L69 2L82 46M60 46H82M48.5 46H95" stroke="#FF6600"/>
</svg>
