<svg width="81" height="45" viewBox="0 0 81 45" fill="none" xmlns="http://www.w3.org/2000/svg">
<path d="M35.8438 44.8125H26.25L8.96875 15.3125V44.8125H0V0H9.59375L26.875 29.5312V0H35.8438V44.8125ZM53.1562 8.96875V26.9062H62.125C63.3542 26.9062 64.5104 26.6771 65.5938 26.2188C66.6771 25.7396 67.625 25.0938 68.4375 24.2812C69.25 23.4688 69.8854 22.5208 70.3438 21.4375C70.8229 20.3333 71.0625 19.1667 71.0625 17.9375C71.0625 16.7083 70.8229 15.5521 70.3438 14.4688C69.8854 13.3646 69.25 12.4062 68.4375 11.5938C67.625 10.7812 66.6771 10.1458 65.5938 9.6875C64.5104 9.20833 63.3542 8.96875 62.125 8.96875H53.1562ZM53.1562 44.8125H44.1875V0H62.125C63.7708 0 65.3542 0.21875 66.875 0.65625C68.3958 1.07292 69.8125 1.67708 71.125 2.46875C72.4583 3.23958 73.6667 4.17708 74.75 5.28125C75.8542 6.36458 76.7917 7.57292 77.5625 8.90625C78.3542 10.2396 78.9583 11.6667 79.375 13.1875C79.8125 14.7083 80.0312 16.2917 80.0312 17.9375C80.0312 19.4792 79.8333 20.9792 79.4375 22.4375C79.0625 23.8958 78.5104 25.2812 77.7812 26.5938C77.0729 27.9062 76.1979 29.1146 75.1562 30.2188C74.1146 31.3229 72.9479 32.2812 71.6562 33.0938L76.625 44.8125H67.0938L63.1875 35.7812L53.1562 35.8438V44.8125Z" fill="#FF6600"/>
</svg>
