<svg width="128" height="128" viewBox="0 0 128 128" fill="none" xmlns="http://www.w3.org/2000/svg">
<g clip-path="url(#clip0_402_595)">
<mask id="mask0_402_595" style="mask-type:alpha" maskUnits="userSpaceOnUse" x="-1" y="0" width="129" height="128">
<path fill-rule="evenodd" clip-rule="evenodd" d="M90.7669 127.126C91.7854 127.523 92.8748 127.706 93.9672 127.664C95.0597 127.622 96.1318 127.356 97.1169 126.882L123.47 114.201C124.827 113.548 125.972 112.524 126.774 111.249C127.575 109.974 128 108.498 128 106.992V21.0089C128 19.5025 127.575 18.0267 126.774 16.7511C125.972 15.4756 124.827 14.4523 123.47 13.7989L97.1169 1.1199C95.6278 0.403404 93.9528 0.1675 92.3237 0.444836C90.6946 0.722171 89.192 1.49903 88.0239 2.6679L37.5739 48.6939L15.5999 32.0129C14.6086 31.2603 13.3852 30.8784 12.1418 30.9336C10.8984 30.9887 9.71357 31.4774 8.79287 32.3149L1.74487 38.7259C1.19562 39.2255 0.756684 39.8342 0.456144 40.5131C0.155605 41.192 7.80072e-05 41.9261 -0.000486738 42.6686C-0.00105148 43.411 0.153358 44.1454 0.452864 44.8248C0.752371 45.5041 1.19038 46.1135 1.73887 46.6139L20.7959 63.9999L1.73987 81.3869C1.19168 81.8874 0.753932 82.4967 0.454612 83.176C0.155291 83.8552 0.000981983 84.5894 0.00154667 85.3317C0.00211136 86.074 0.157538 86.808 0.457891 87.4868C0.758244 88.1656 1.19692 88.7743 1.74587 89.2739L8.79387 95.6849C9.71436 96.5227 10.8992 97.0117 12.1426 97.067C13.386 97.1224 14.6096 96.7406 15.6009 95.9879L37.5749 79.3079L88.0249 125.333C88.805 126.114 89.7381 126.725 90.7669 127.126ZM96.0189 34.9429L57.7399 63.9999L96.0199 93.0579L96.0189 34.9429Z" fill="white"/>
</mask>
<g mask="url(#mask0_402_595)">
<path d="M123.471 13.8198L97.0967 1.11984C95.607 0.40287 93.9313 0.166711 92.3015 0.444049C90.6716 0.721387 89.1684 1.49851 87.9997 2.66784L1.66165 81.3868C1.11305 81.8871 0.674936 82.4963 0.375351 83.1756C0.0757655 83.8549 -0.0786882 84.5892 -0.0781235 85.3317C-0.0775587 86.0741 0.0780122 86.8082 0.378631 87.487C0.679249 88.1659 1.11829 88.7745 1.66765 89.2738L8.71966 95.6848C9.64097 96.5226 10.8264 97.0115 12.0704 97.0668C13.3144 97.1222 14.5386 96.7405 15.5307 95.9878L119.502 17.1128C122.99 14.4668 128 16.9548 128 21.3328V21.0268C128 19.5209 127.575 18.0456 126.773 16.7705C125.972 15.4954 124.827 14.4733 123.471 13.8198Z" fill="#F46201"/>
<g filter="url(#filter0_d_402_595)">
<path d="M123.471 114.181L97.0967 126.879C95.6072 127.596 93.9316 127.832 92.3018 127.555C90.672 127.279 89.1686 126.502 87.9997 125.333L1.66165 46.6128C1.11305 46.1125 0.674936 45.5033 0.375351 44.824C0.0757655 44.1447 -0.0786882 43.4104 -0.0781235 42.6679C-0.0775587 41.9255 0.0780122 41.1914 0.378631 40.5126C0.679249 39.8337 1.11829 39.2252 1.66765 38.7258L8.71966 32.3148C9.64097 31.477 10.8264 30.9881 12.0704 30.9328C13.3144 30.8774 14.5386 31.2591 15.5307 32.0118L119.502 110.886C122.99 113.533 128 111.045 128 106.667V106.973C128 108.479 127.575 109.954 126.773 111.229C125.972 112.504 124.827 113.527 123.471 114.181Z" fill="#FF6600"/>
</g>
<g filter="url(#filter1_d_402_595)">
<path d="M97.0975 126.882C95.6075 127.598 93.9316 127.834 92.3018 127.557C90.6719 127.279 89.1685 126.502 87.9995 125.333C90.9515 128.285 95.9995 126.194 95.9995 122.019V5.97978C95.9995 1.80478 90.9515 -0.286216 87.9995 2.66678C89.1685 1.49759 90.6719 0.720503 92.3018 0.443003C93.9316 0.165504 95.6075 0.401301 97.0975 1.11778L123.467 13.7998C124.824 14.4527 125.97 15.4759 126.772 16.7514C127.574 18.027 128 19.5031 128 21.0098V106.992C128 108.498 127.574 109.975 126.772 111.25C125.97 112.526 124.824 113.549 123.467 114.202L97.0975 126.882Z" fill="#F46201"/>
</g>
<path style="mix-blend-mode:overlay" opacity="0.25" fill-rule="evenodd" clip-rule="evenodd" d="M90.6898 127.126C91.7082 127.523 92.7974 127.706 93.8896 127.664C94.9819 127.622 96.0538 127.356 97.0387 126.882L123.392 114.201C124.749 113.548 125.894 112.524 126.696 111.249C127.497 109.973 127.922 108.497 127.922 106.991V21.0089C127.922 19.5025 127.497 18.0267 126.696 16.7511C125.894 15.4756 124.749 14.4523 123.392 13.7989L97.0387 1.1199C95.5496 0.403404 93.8746 0.1675 92.2456 0.444836C90.6165 0.722171 89.1139 1.49903 87.9457 2.6679L37.4957 48.6939L15.5217 32.0139C14.5305 31.2613 13.307 30.8794 12.0637 30.9346C10.8203 30.9897 9.63545 31.4784 8.71475 32.3159L1.66675 38.7269C1.11763 39.2265 0.678822 39.8353 0.378371 40.5142C0.0779198 41.193 -0.0775587 41.9272 -0.0781235 42.6696C-0.0786882 43.412 0.0756733 44.1463 0.375091 44.8257C0.674509 45.505 1.11239 46.1144 1.66075 46.6149L20.7177 63.9999L1.66175 81.3859C1.11326 81.8863 0.675249 82.4957 0.375743 83.175C0.0762366 83.8544 -0.078173 84.5888 -0.0776083 85.3312C-0.0770435 86.0737 0.0784831 86.8078 0.379023 87.4867C0.679562 88.1656 1.1185 88.7743 1.66775 89.2739L8.71575 95.6849C9.63633 96.5225 10.8211 97.0114 12.0645 97.0667C13.3079 97.1221 14.5314 96.7404 15.5227 95.9879L37.4977 79.3069L87.9477 125.333C88.7275 126.114 89.6613 126.725 90.6898 127.126ZM95.9417 34.9419L57.6617 63.9999L95.9417 93.0569V34.9419Z" fill="url(#paint0_linear_402_595)"/>
</g>
</g>
<defs>
<filter id="filter0_d_402_595" x="-8.41146" y="22.5942" width="144.744" height="113.407" filterUnits="userSpaceOnUse" color-interpolation-filters="sRGB">
<feFlood flood-opacity="0" result="BackgroundImageFix"/>
<feColorMatrix in="SourceAlpha" type="matrix" values="0 0 0 0 0 0 0 0 0 0 0 0 0 0 0 0 0 0 127 0" result="hardAlpha"/>
<feOffset/>
<feGaussianBlur stdDeviation="4.16667"/>
<feColorMatrix type="matrix" values="0 0 0 0 0 0 0 0 0 0 0 0 0 0 0 0 0 0 0.25 0"/>
<feBlend mode="overlay" in2="BackgroundImageFix" result="effect1_dropShadow_402_595"/>
<feBlend mode="normal" in="SourceGraphic" in2="effect1_dropShadow_402_595" result="shape"/>
</filter>
<filter id="filter1_d_402_595" x="79.6662" y="-8.00351" width="56.6667" height="144.007" filterUnits="userSpaceOnUse" color-interpolation-filters="sRGB">
<feFlood flood-opacity="0" result="BackgroundImageFix"/>
<feColorMatrix in="SourceAlpha" type="matrix" values="0 0 0 0 0 0 0 0 0 0 0 0 0 0 0 0 0 0 127 0" result="hardAlpha"/>
<feOffset/>
<feGaussianBlur stdDeviation="4.16667"/>
<feColorMatrix type="matrix" values="0 0 0 0 0 0 0 0 0 0 0 0 0 0 0 0 0 0 0.25 0"/>
<feBlend mode="overlay" in2="BackgroundImageFix" result="effect1_dropShadow_402_595"/>
<feBlend mode="normal" in="SourceGraphic" in2="effect1_dropShadow_402_595" result="shape"/>
</filter>
<linearGradient id="paint0_linear_402_595" x1="63.922" y1="0.3298" x2="63.922" y2="127.67" gradientUnits="userSpaceOnUse">
<stop stop-color="white"/>
<stop offset="1" stop-color="white" stop-opacity="0"/>
</linearGradient>
<clipPath id="clip0_402_595">
<rect width="128" height="128" fill="white"/>
</clipPath>
</defs>
</svg>
