<svg width="128" height="128" viewBox="0 0 128 128" fill="none" xmlns="http://www.w3.org/2000/svg">
<path d="M116.948 97.8071C110.085 97.6201 104.844 98.2591 100.363 100.148C99.0901 100.685 97.0581 100.7 96.8501 102.295C97.5501 103.028 97.6591 104.124 98.2151 105.026C99.2851 106.756 101.091 109.078 102.703 110.294C104.465 111.624 106.28 113.045 108.168 114.196C111.526 116.243 115.275 117.413 118.508 119.464C120.414 120.674 122.307 122.197 124.166 123.561C125.086 124.236 125.703 125.285 126.898 125.708V125.514C126.27 124.714 126.108 123.616 125.532 122.781L122.995 120.244C120.515 116.952 117.366 114.06 114.019 111.659C111.35 109.743 105.377 107.155 104.264 104.05L104.069 103.855C105.961 103.641 108.176 102.957 109.923 102.488C112.857 101.702 115.479 101.905 118.508 101.123L122.605 99.9521V99.1721C121.074 97.6011 119.982 95.5211 118.313 94.0991C113.943 90.3791 109.175 86.6621 104.265 83.5621C101.541 81.8441 98.1761 80.7271 95.2891 79.2701C94.3181 78.7791 92.6121 78.5241 91.9711 77.7081C90.4541 75.7761 89.6291 73.3261 88.4601 71.0751C86.0111 66.3581 83.6061 61.2071 81.4361 56.2441C79.9561 52.8601 78.9891 49.5241 77.1431 46.4881C68.2831 31.9211 58.7471 23.1301 43.9741 14.4881C40.8301 12.6501 37.0451 11.9251 33.0451 10.9751C30.9001 10.8461 28.7531 10.7151 26.6071 10.5841C25.2961 10.0381 23.9341 8.43509 22.7051 7.65709C17.8111 4.56509 5.25712 -2.15991 1.63312 6.68209C-0.655885 12.2631 5.05412 17.7071 7.09512 20.5361C8.52912 22.5181 10.3641 24.7431 11.3881 26.9741C12.0621 28.4411 12.1781 29.9121 12.7551 31.4631C14.1721 35.2851 15.4071 39.4431 17.2421 42.9741C18.1691 44.7621 19.1911 46.6441 20.3641 48.2421C21.0821 49.2231 22.3151 49.6551 22.5091 51.1691C21.3051 52.8551 21.2361 55.4731 20.5591 57.6091C17.5091 67.2241 18.6601 79.1761 23.0961 86.2921C24.4561 88.4781 27.6631 93.1631 32.0711 91.3651C35.9271 89.7951 35.0661 84.9271 36.1691 80.6331C36.4181 79.6601 36.2651 78.9441 36.7541 78.2921V78.4871L40.2671 85.5111C42.8671 89.6981 47.4791 94.0731 51.3891 97.0251C53.4161 98.5561 55.0121 101.202 57.6331 102.098V101.902H57.4381C56.9301 101.111 56.1351 100.783 55.4871 100.147C53.9601 98.6501 52.2621 96.7891 51.0001 95.0741C47.4441 90.2471 44.3021 84.9641 41.4391 79.4651C40.0711 76.8381 38.8821 73.9421 37.7301 71.2691C37.2861 70.2391 37.2921 68.6801 36.3661 68.1471C35.1031 70.1051 33.2441 71.6891 32.2681 74.0011C30.7071 77.6971 30.5061 82.2051 29.9271 86.8791C29.5851 87.0011 29.7371 86.9171 29.5361 87.0731C26.8181 86.4181 25.8641 83.6211 24.8531 81.2201C22.2991 75.1501 21.8241 65.3781 24.0721 58.3911C24.6541 56.5821 27.2821 50.8901 26.2181 49.2191C25.7101 47.5531 24.0341 46.5891 23.0971 45.3161C21.9361 43.7421 20.7781 41.6701 19.9731 39.8521C17.8831 35.1211 16.9071 29.8081 14.7061 25.0241C13.6531 22.7371 11.8741 20.4221 10.4131 18.3901C8.79612 16.1371 6.98412 14.4781 5.73012 11.7551C5.28412 10.7871 4.67912 9.23709 5.33912 8.24209C5.54912 7.57109 5.84712 7.29109 6.51012 7.07209C7.64212 6.19909 10.7941 7.36209 11.9721 7.85109C15.1011 9.15109 17.7131 10.3891 20.3641 12.1451C21.6351 12.9891 22.9231 14.6201 24.4611 15.0721H26.2171C28.9641 15.7031 32.0411 15.2671 34.6081 16.0471C39.1441 17.4251 43.2091 19.5701 46.9001 21.9011C58.1461 29.0031 67.3421 39.1111 73.6321 51.1701C74.6441 53.1121 75.0821 54.9641 75.9731 57.0241C77.7711 61.1771 80.0361 65.4501 81.8251 69.5121C83.6111 73.5641 85.3511 77.6531 87.8751 81.0251C89.2021 82.7971 94.3261 83.7481 96.6561 84.7331C98.2881 85.4221 100.963 86.1421 102.51 87.0731C105.463 88.8551 108.325 90.9761 111.096 92.9281C112.479 93.9031 116.736 96.0441 116.948 97.8071ZM29.7291 23.4661C28.2981 23.4391 27.2861 23.6221 26.2161 23.8551V24.0501H26.4111C27.0941 25.4521 28.2991 26.3561 29.1421 27.5631C29.7921 28.9301 30.4431 30.2951 31.0941 31.6601L31.2881 31.4671C32.4971 30.6141 33.0501 29.2531 33.0431 27.1731C32.5591 26.6641 32.4881 26.0261 32.0681 25.4181C31.5121 24.6071 30.4331 24.1461 29.7291 23.4661Z" fill="#FF6600"/>
</svg>
